<?xml version="1.0" encoding="iso-8859-1"?>
<!-- Generator: Adobe Illustrator 19.1.0, SVG Export Plug-In . SVG Version: 6.00 Build 0)  -->
<svg version="1.1" xmlns="http://www.w3.org/2000/svg" xmlns:xlink="http://www.w3.org/1999/xlink" x="0px" y="0px"
	 viewBox="0 0 78.519 122.434" style="enable-background:new 0 0 78.519 122.434;" xml:space="preserve">
<g id="bg" style="display:none;">
	<rect x="-207.431" y="5.601" style="display:inline;fill:#E0E0D7;" width="300.986" height="200"/>
</g>
<g id="heart">
</g>
<g id="book">
	<polygon style="fill:#FF0000;" points="73.72,103.881 13.856,101.807 14.587,13.585 19.789,11.782 25.801,11.605 74.473,13.291 	
		"/>
	<path style="fill:#1E1E17;" d="M25.801,11.605c0,0-8.092-0.059-11.956,0.008c-4.079,2.522-6.801,5.463-9.25,10.669l-0.812,79.615
		l13.178,9.58l0.898-88.007l-9.437-0.845c1.345-3.81,3.174-4.996,6.901-7.668l10.43,1.352L25.801,11.605z"/>
	<g>
		<polygon style="fill:#DDDFE1;stroke:#CED3C6;stroke-width:0.5;stroke-miterlimit:10;" points="72.726,106.76 12.277,101.347 
			13.168,14.033 73.617,19.447 		"/>
		<polygon style="fill:#E3E4E6;stroke:#CED3C6;stroke-width:0.5;stroke-miterlimit:10;" points="72.558,20.832 71.667,108.145 
			11.218,102.732 12.109,15.418 		"/>
		<polygon style="fill:#E9EAEB;stroke:#CED3C6;stroke-width:0.5;stroke-miterlimit:10;" points="71.499,22.217 70.608,109.53 
			10.159,104.117 11.05,16.803 		"/>
		<polygon style="fill:#EEEFF0;stroke:#CED3C6;stroke-width:0.5;stroke-miterlimit:10;" points="70.44,23.601 69.55,110.915 
			9.101,105.502 9.991,18.188 		"/>
		<polygon style="fill:#F4F5F5;stroke:#CED3C6;stroke-width:0.5;stroke-miterlimit:10;" points="69.381,24.986 68.491,112.3 
			8.042,106.886 8.932,19.573 		"/>
		<polygon style="fill:#FAFAFA;stroke:#CED3C6;stroke-width:0.5;stroke-miterlimit:10;" points="67.432,113.685 6.983,108.271 
			7.874,20.958 68.323,26.371 		"/>
	</g>
	<polygon style="fill:#FF0000;" points="66.675,120.086 4.98,109.019 6.294,23.627 67.99,34.694 	"/>
	<polygon style="fill:#3A3333;" points="16.252,111.041 3.426,108.74 4.741,23.348 17.566,25.649 	"/>
</g>
<g id="guy">
</g>
<g id="glasses">
</g>
</svg>
